<svg data-v-0dd9719b="" version="1.0" xmlns="http://www.w3.org/2000/svg" xmlns:xlink="http://www.w3.org/1999/xlink" width="100%" height="100%" viewBox="0 0 340.000000 250.000000" preserveAspectRatio="xMidYMid meet" color-interpolation-filters="sRGB" style="margin: auto;"> <rect data-v-0dd9719b="" x="0" y="0" width="100%" height="100%" fill="#fff" fill-opacity="1" class="background"></rect> <rect data-v-0dd9719b="" x="0" y="0" width="100%" height="100%" fill="url(#watermark)" fill-opacity="1" class="watermarklayer"></rect> <g data-v-0dd9719b="" fill="#333" class="icon-text-wrapper icon-svg-group iconsvg" transform="translate(47.82684326171875,94.99699974060059)"><g class="iconsvg-imagesvg" transform="translate(0,0)"><g><rect fill="#333" fill-opacity="0" stroke-width="2" x="0" y="0" width="60" height="60.006000600060005" class="image-rect"></rect> <svg x="0" y="0" width="60" height="60.006000600060005" filtersec="colorsb1375782488" class="image-svg-svg primary" style="overflow: visible;"><svg xmlns="http://www.w3.org/2000/svg" viewBox="0.01964184083044529 -0.03000464104115963 99.9903564453125 100.00001525878906"><path d="M75.74 61.83H62.5a17.53 17.53 0 0 1-26.75-1.37 2.57 2.57 0 0 0 .3-1.17 2.53 2.53 0 1 0-2.53 2.53 2.73 2.73 0 0 0 .5 0A19.68 19.68 0 0 0 63.41 64h9.45a26.79 26.79 0 1 1 0-28h-9.1a19.69 19.69 0 0 0-30.19 2.5 2.53 2.53 0 1 0 2.48 2.5 2.47 2.47 0 0 0-.53-1.53 17.53 17.53 0 0 1 27.29-1.33H98.6a50 50 0 1 0 0 23.66zm-43.45-2.54a1.23 1.23 0 1 1 1.23 1.23 1.24 1.24 0 0 1-1.23-1.23zM34.75 41a1.23 1.23 0 1 1-1.23-1.23A1.23 1.23 0 0 1 34.75 41zM83.6 73.42a3.7 3.7 0 0 1-.95-.14 40 40 0 1 1 0-46.56 3.7 3.7 0 0 1 .95-.14 3.86 3.86 0 1 1-3.27 1.86 37.14 37.14 0 1 0 0 43.12 3.83 3.83 0 1 1 3.27 1.86z" fill="#0080df"></path><path d="M99.87 46.27H58.16a9 9 0 1 0 0 7.46h41.71c.09-1.23.14-2.47.14-3.73s-.01-2.5-.14-3.73zM50 53.73A3.73 3.73 0 1 1 53.73 50 3.73 3.73 0 0 1 50 53.73z" fill="#f6911e"></path><path d="M81.74 30.42a1.87 1.87 0 1 0 1.86-1.87 1.87 1.87 0 0 0-1.86 1.87zM83.6 67.71a1.87 1.87 0 1 0 1.87 1.87 1.87 1.87 0 0 0-1.87-1.87z" fill="#0080df"></path></svg></svg> <!----></g></g> <g transform="translate(67,5.660308837890625)"><g data-gra="path-name" fill-rule="" class="tp-name iconsvg-namesvg" transform="translate(0,0)"><g transform="scale(1)"><g><path d="M14.62-30.38L14.76-30.49Q14.83-30.49 14.87-30.47 14.9-30.46 14.98-30.46L14.98-30.46Q16.52-30.1 18-29.65 19.48-29.2 21.02-28.84L21.02-28.84 21.13-28.69 21.02-28.51Q19.94-28.19 19.03-27.4 18.11-26.6 17.28-25.63 16.45-24.66 15.7-23.63 14.94-22.61 14.15-21.85L14.15-21.85Q12.31-20.02 10.04-18.45 7.78-16.88 5.4-15.84L5.4-15.84Q4.9-15.62 4.39-15.44 3.89-15.26 3.38-15.08L3.38-15.08Q3.31-15.05 3.01-14.94 2.7-14.83 2.7-15.08L2.7-15.08Q2.7-15.23 2.83-15.37 2.95-15.52 3.02-15.59L3.02-15.59Q4.64-17.28 6.44-18.9 8.24-20.52 9.86-22.27 11.48-24.01 12.76-25.99 14.04-27.97 14.62-30.38L14.62-30.38ZM20.12-26.96L20.27-27.11Q20.59-27 21.01-26.62 21.42-26.24 21.71-26.03L21.71-26.03Q22.36-25.52 23.09-25.04 23.83-24.55 24.55-24.16L24.55-24.16Q26.1-23.29 27.77-22.64 29.45-22 31.18-21.49L31.18-21.49Q31.9-21.28 32.62-21.13 33.34-20.99 34.06-20.7L34.06-20.7Q34.13-20.66 34.24-20.59 34.34-20.52 34.34-20.41L34.34-20.41Q34.34-20.3 34.27-20.16L34.27-20.16Q33.98-19.73 33.59-19.35 33.19-18.97 32.78-18.58 32.36-18.18 32-17.77 31.64-17.35 31.46-16.88L31.46-16.88Q31.28-16.49 31.23-16.2 31.18-15.91 30.85-15.62L30.85-15.62Q30.71-15.62 30.37-15.84 30.02-16.06 29.63-16.33 29.23-16.6 28.85-16.85 28.48-17.1 28.33-17.21L28.33-17.21Q27.18-18 25.78-19.04 24.37-20.09 23.13-21.33 21.89-22.57 21.02-23.99 20.16-25.42 20.12-26.96L20.12-26.96ZM25.85-15.84L25.78-15.7 25.52-15.59 10.26-15.59Q10.08-15.59 10.08-15.77 10.08-15.95 10.26-15.95L10.26-15.95 18.72-15.95Q18.97-15.95 19.33-16.38 19.69-16.81 20.07-17.39 20.45-17.96 20.77-18.5 21.1-19.04 21.28-19.26L21.28-19.26Q21.42-19.48 21.67-19.48L21.67-19.48Q22-19.48 22.68-19.03 23.36-18.58 24.03-17.98 24.7-17.39 25.24-16.78 25.78-16.16 25.85-15.84L25.85-15.84ZM7.06 2.99L6.95 2.74 6.95-11.45Q6.95-11.56 7.02-11.68 7.09-11.81 7.24-11.81L7.24-11.81Q7.49-11.81 8.12-11.5 8.75-11.2 9.56-10.82 10.37-10.44 11.21-10.13 12.06-9.83 12.71-9.83L12.71-9.83 23.29-9.83Q23.62-9.83 24.03-10.22 24.44-10.62 24.86-11.11 25.27-11.59 25.58-11.99 25.88-12.38 25.99-12.38L25.99-12.38Q26.14-12.38 26.82-11.88 27.5-11.38 28.28-10.75 29.05-10.12 29.66-9.58 30.28-9.04 30.28-8.96L30.28-8.96Q30.28-8.86 30.15-8.71 30.02-8.57 29.84-8.44 29.66-8.32 29.48-8.19 29.3-8.06 29.23-7.99L29.23-7.99 29.16-7.81 29.16 1.69Q29.16 1.94 28.53 2.14 27.9 2.34 27.11 2.47 26.32 2.59 25.58 2.66 24.84 2.74 24.59 2.74L24.59 2.74Q24.23 2.74 24.23 2.38L24.23 2.38 24.23-9Q24.23-9.36 23.87-9.36L23.87-9.36 12.35-9.36Q11.99-9.36 11.99-9L11.99-9 11.99-0.72Q11.99-0.36 12.35-0.36L12.35-0.36 23.26-0.36Q23.44-0.36 23.44-0.25L23.44-0.25Q23.44 0.11 23.08 0.11L23.08 0.11 12.24 0.11Q12.1 0.11 12.01 0.4 11.92 0.68 11.81 1.08 11.7 1.48 11.54 1.85 11.38 2.23 11.05 2.41L11.05 2.41Q10.26 2.84 9.25 2.99 8.24 3.13 7.34 3.13L7.34 3.13 7.09 3.02 7.06 2.99ZM45.9-19.08L45.86-19.33Q45.9-19.44 45.99-19.58 46.08-19.73 46.08-19.84L46.08-19.84 46.08-27Q46.08-27.36 45.72-27.36L45.72-27.36 43.56-27.36Q43.2-27.36 43.2-27L43.2-27 43.2-20.02Q43.2-19.8 43.34-19.64 43.49-19.48 43.7-19.48L43.7-19.48Q43.99-19.48 44.3-19.49 44.6-19.51 44.86-19.33L44.86-19.33Q44.75-19.19 44.53-19.15 44.32-19.12 44.1-19.06 43.88-19.01 43.69-18.92 43.49-18.83 43.45-18.58L43.45-18.58Q43.38-18.29 43.38-17.89 43.38-17.5 43.34-17.17L43.34-17.17Q43.27-16.31 43.25-15.43 43.24-14.54 43.16-13.64L43.16-13.64Q43.06-11.56 42.82-9.41 42.59-7.27 42.05-5.22 41.51-3.17 40.55-1.3 39.6 0.58 38.02 2.09L38.02 2.09Q37.94 2.16 37.85 2.2 37.76 2.23 37.69 2.27L37.69 2.27Q37.51 2.27 37.49 2.11 37.48 1.94 37.48 1.84L37.48 1.84Q37.48 0.68 37.67-0.43 37.87-1.55 38.12-2.68 38.38-3.82 38.59-4.93 38.81-6.05 38.88-7.2L38.88-7.2Q39.17-12.78 39.17-18.32 39.17-23.87 39.17-29.45L39.17-29.45Q39.17-29.77 39.53-29.77L39.53-29.77Q40.1-29.77 40.72-29.5 41.33-29.23 41.96-28.91 42.59-28.58 43.24-28.31 43.88-28.04 44.6-28.04L44.6-28.04Q45.18-28.04 45.56-28.39 45.94-28.73 46.24-29.12 46.55-29.52 46.87-29.88 47.2-30.24 47.66-30.24L47.66-30.24Q47.95-30.24 48.51-29.9 49.07-29.56 49.63-29.07 50.18-28.58 50.62-28.06 51.05-27.54 51.12-27.25L51.12-27.25 51.01-27Q50.87-26.89 50.58-26.62 50.29-26.35 50.29-26.17L50.29-26.17 50.29 0Q50.29 0.68 49.97 1.19 49.64 1.69 49.12 2.05 48.6 2.41 47.99 2.65 47.38 2.88 46.84 3.02L46.84 3.02Q46.55 3.1 46.3 3.17 46.04 3.24 45.76 3.24L45.76 3.24Q45.5 3.24 45.43 3.2 45.36 3.17 45.29 2.92L45.29 2.92Q45.18 2.63 45.13 2.29 45.07 1.94 45 1.62L45 1.62Q44.89 1.15 44.8 0.85 44.71 0.54 44.6 0.29 44.5 0.04 44.33-0.23 44.17-0.5 43.92-0.94L43.92-0.94Q43.88-1.01 43.83-1.12 43.78-1.22 43.78-1.3L43.78-1.3Q43.78-1.48 43.92-1.51 44.06-1.55 44.21-1.55L44.21-1.55Q44.53-1.55 44.75-1.53 44.96-1.51 45.14-1.53 45.32-1.55 45.49-1.69 45.65-1.84 45.83-2.16L45.83-2.16Q45.9-2.27 45.94-3.29 45.97-4.32 46.01-5.81 46.04-7.31 46.06-9.09 46.08-10.87 46.08-12.47 46.08-14.08 46.08-15.3 46.08-16.52 46.08-16.96L46.08-16.96Q46.08-17.46 46.12-18.04 46.15-18.61 45.9-19.08L45.9-19.08ZM63.68-27.61L63.94-27.72Q64.04-27.83 64.35-28.13 64.66-28.44 64.98-28.78 65.3-29.12 65.61-29.38 65.92-29.63 66.02-29.63L66.02-29.63Q66.1-29.63 66.6-29.25 67.1-28.87 67.73-28.39 68.36-27.9 68.9-27.45 69.44-27 69.59-26.89L69.59-26.89 69.62-26.82Q69.62-26.64 69.48-26.51 69.34-26.39 69.17-26.26 69.01-26.14 68.89-25.99 68.76-25.85 68.76-25.7L68.76-25.7 68.76-11.77Q68.76-11.41 68.22-11.18 67.68-10.94 66.98-10.8 66.28-10.66 65.59-10.6 64.91-10.55 64.66-10.55L64.66-10.55Q64.33-10.55 64.31-10.93 64.3-11.3 64.33-11.75 64.37-12.2 64.35-12.58 64.33-12.96 63.97-12.96L63.97-12.96 57.42-12.96Q57.28-12.96 57.08-12.76 56.88-12.56 56.88-12.42L56.88-12.42Q56.88-12.13 56.88-11.36 56.88-10.58 56.9-9.59 56.92-8.6 56.93-7.52 56.95-6.44 56.99-5.51 57.02-4.57 57.06-3.91 57.1-3.24 57.13-3.13L57.13-3.13Q57.31-2.74 57.56-2.45 57.82-2.16 58.32-2.16L58.32-2.16 65.77-2.16Q66.6-2.16 67.05-2.84 67.5-3.53 67.79-4.36 68.08-5.18 68.33-5.87 68.58-6.55 69.08-6.55L69.08-6.55Q69.16-6.55 69.19-6.44 69.23-6.34 69.23-6.26L69.23-6.26 69.23-3.06Q69.23-2.88 69.52-2.68 69.8-2.48 70.15-2.2 70.49-1.91 70.78-1.53 71.06-1.15 71.06-0.61L71.06-0.61Q71.06 0.25 70.43 0.74 69.8 1.22 68.9 1.49 68 1.76 67.07 1.84 66.13 1.91 65.52 1.91L65.52 1.91Q63.58 1.91 61.65 1.93 59.72 1.94 57.78 1.94L57.78 1.94Q57.13 1.94 56.39 1.89 55.66 1.84 54.97 1.62 54.29 1.4 53.73 1.01 53.17 0.61 52.85-0.11L52.85-0.11Q52.74-0.29 52.65-0.63 52.56-0.97 52.56-1.19L52.56-1.19 52.56-29.05Q52.56-29.34 52.88-29.34L52.88-29.34Q53.42-29.34 53.96-29.07 54.5-28.8 55.06-28.48 55.62-28.15 56.18-27.88 56.74-27.61 57.35-27.61L57.35-27.61 63.68-27.61ZM64.04-13.61L64.04-13.61Q64.08-13.82 64.1-14.4 64.12-14.98 64.12-15.64 64.12-16.31 64.12-16.9 64.12-17.5 64.12-17.78L64.12-17.78Q64.12-20.02 64.1-22.21 64.08-24.41 64.08-26.64L64.08-26.64Q64.08-26.78 63.81-26.86 63.54-26.93 63.23-26.91 62.93-26.89 62.66-26.77 62.39-26.64 62.39-26.39L62.39-26.39 62.39-14Q62.39-13.72 62.59-13.57 62.78-13.43 63.05-13.37 63.32-13.32 63.59-13.39 63.86-13.46 64.04-13.61ZM58.79-14.15L58.79-26.17Q58.79-26.71 58.36-26.8 57.92-26.89 57.53-26.89L57.53-26.89Q57.38-26.89 57.26-26.86 57.13-26.82 57.13-26.64L57.13-26.64 57.13-13.68Q57.13-13.5 57.38-13.43 57.64-13.36 57.96-13.41 58.28-13.46 58.54-13.64 58.79-13.82 58.79-14.15L58.79-14.15ZM43.88-10.66L43.88-10.66Q43.88-10.73 44.08-10.76 44.28-10.8 44.51-10.8 44.75-10.8 44.95-10.76 45.14-10.73 45.14-10.66L45.14-10.66Q45.14-10.58 45.04-10.58L45.04-10.58Q44.89-10.51 44.44-10.51 43.99-10.51 43.88-10.66ZM78.12-21.49L78.23-21.74 78.23-30.13Q78.23-30.49 78.59-30.49L78.59-30.49Q79.74-30.49 80.86-30.29 81.97-30.1 83.12-29.99L83.12-29.99 83.3-29.88Q83.23-29.56 82.89-29.34 82.55-29.12 82.55-28.8L82.55-28.8 82.55-25.92Q82.55-25.42 83.09-25.42L83.09-25.42Q83.27-25.42 83.57-25.72 83.88-26.03 84.19-26.42 84.49-26.82 84.76-27.2 85.03-27.58 85.14-27.76L85.14-27.76 85.32-27.83Q85.5-27.83 86.06-27.43 86.62-27.04 87.21-26.55 87.8-26.06 88.27-25.6 88.74-25.13 88.74-24.98L88.74-24.98Q88.74-24.88 88.67-24.8L88.67-24.8Q88.6-24.73 87.79-24.71 86.98-24.7 85.97-24.7 84.96-24.7 84.06-24.71 83.16-24.73 82.91-24.73L82.91-24.73Q82.55-24.73 82.55-24.37L82.55-24.37 82.55-21.85Q82.55-21.64 82.69-21.46 82.84-21.28 83.05-21.28L83.05-21.28Q83.16-21.28 83.38-21.46 83.59-21.64 83.83-21.89 84.06-22.14 84.28-22.36 84.49-22.57 84.6-22.68L84.6-22.68 84.85-22.79 85.21-22.79Q85.32-22.79 85.72-22.46 86.11-22.14 86.53-21.74 86.94-21.35 87.28-20.99 87.62-20.63 87.62-20.52L87.62-20.52Q87.62-20.34 87.35-20.05 87.08-19.76 87.08-19.08L87.08-19.08Q87.08-16.49 87.01-13.93 86.94-11.38 86.87-8.78L86.87-8.78 86.76-8.53Q86.33-8.06 86.09-7.88 85.86-7.7 85.64-7.65 85.43-7.6 85.1-7.63 84.78-7.67 84.13-7.67L84.13-7.67Q83.92-7.67 83.83-7.92 83.74-8.17 83.65-8.48 83.56-8.78 83.45-9.04 83.34-9.29 83.09-9.29L83.09-9.29Q82.94-9.29 82.75-9.09 82.55-8.89 82.55-8.75L82.55-8.75 82.55-5.04Q82.55-4.5 83.12-4.5L83.12-4.5Q83.7-4.5 84.11-4.93 84.53-5.36 84.85-5.87 85.18-6.37 85.45-6.8 85.72-7.24 86.04-7.24L86.04-7.24Q86.26-7.24 86.8-6.84 87.34-6.44 87.88-5.94 88.42-5.44 88.83-4.93 89.24-4.43 89.24-4.21L89.24-4.21Q89.24-4.03 89.1-4 88.96-3.96 88.81-3.96L88.81-3.96 82.8-3.96Q82.44-3.96 82.44-3.6L82.44-3.6 82.44 2.2Q82.44 2.38 81.99 2.61 81.54 2.84 80.95 3.02 80.35 3.2 79.79 3.33 79.24 3.46 79.06 3.46L79.06 3.46Q78.59 3.46 78.48 2.95L78.48 2.95Q78.41 2.56 78.41 2.07 78.41 1.58 78.37 1.15L78.37 1.15Q78.3-0.14 78.26-1.46 78.23-2.77 78.23-4.07L78.23-4.07Q78.23-5.18 78.26-6.3 78.3-7.42 78.3-8.53L78.3-8.53Q78.3-8.6 78.25-8.73 78.19-8.86 78.08-8.86L78.08-8.86Q77.76-8.86 77.42-8.6 77.08-8.35 76.68-8.03 76.28-7.7 75.74-7.45 75.2-7.2 74.52-7.2L74.52-7.2Q74.16-7.2 74.16-7.56L74.16-7.56Q74.16-8.53 74.14-9.49 74.12-10.44 74.09-11.41L74.09-11.41Q74.02-13.57 74.03-15.68 74.05-17.78 73.98-19.94L73.98-19.94Q73.94-20.52 73.93-21.1 73.91-21.67 73.91-22.25L73.91-22.25Q73.91-22.32 73.96-22.45 74.02-22.57 74.12-22.57L74.12-22.57Q74.52-22.57 75.06-22.27 75.6-21.96 76.18-21.67 76.75-21.38 77.26-21.26 77.76-21.13 78.12-21.49L78.12-21.49ZM102.96-29.92L102.96-29.92Q103.25-29.88 104.02-29.41 104.8-28.94 105.5-28.39 106.2-27.83 106.52-27.36 106.85-26.89 106.27-26.89L106.27-26.89 88.27-26.89Q88.09-26.89 88.09-27.07L88.09-27.07Q88.09-27.25 88.27-27.25L88.27-27.25 100.58-27.25Q100.73-27.25 101-27.61 101.27-27.97 101.59-28.44 101.92-28.91 102.28-29.34 102.64-29.77 102.96-29.92ZM99.61-23.9L99.72-23.72Q99.68-23.54 99.31-23.15 98.93-22.75 98.33-22.23 97.74-21.71 97.04-21.17 96.34-20.63 95.67-20.14 95-19.66 94.48-19.33 93.96-19.01 93.74-18.94L93.74-18.94 93.6-19.04Q93.56-19.58 93.76-20.14 93.96-20.7 94.19-21.24 94.43-21.78 94.64-22.28 94.86-22.79 94.86-23.22L94.86-23.22Q94.86-23.4 94.66-23.47 94.46-23.54 94.32-23.54L94.32-23.54Q94.1-23.54 93.4-22.82 92.7-22.1 91.85-21.24 91.01-20.38 90.16-19.66 89.32-18.94 88.85-18.94L88.85-18.94Q88.63-18.94 88.58-18.99 88.52-19.04 88.52-19.26L88.52-19.26Q88.52-19.4 88.74-19.82 88.96-20.23 89.03-20.41L89.03-20.41Q89.32-21.24 89.53-22.1 89.75-22.97 89.93-23.8L89.93-23.8Q89.96-23.9 90-24.17 90.04-24.44 90.11-24.71 90.18-24.98 90.29-25.2 90.4-25.42 90.54-25.42L90.54-25.42Q90.68-25.42 91.13-25.24 91.58-25.06 92.18-24.82 92.77-24.59 93.4-24.41 94.03-24.23 94.57-24.23L94.57-24.23Q94.82-24.23 94.99-24.39 95.15-24.55 95.26-24.75 95.36-24.95 95.44-25.11 95.51-25.27 95.62-25.27L95.62-25.27Q95.69-25.27 96.26-25.09 96.84-24.91 97.54-24.66 98.24-24.41 98.86-24.19 99.47-23.98 99.61-23.9L99.61-23.9ZM101.38-25.2L101.38-25.2Q101.59-25.2 102.28-25.04 102.96-24.88 103.7-24.66 104.44-24.44 104.99-24.19 105.55-23.94 105.55-23.72L105.55-23.72Q105.55-23.58 105.16-23.18 104.76-22.79 104.15-22.28 103.54-21.78 102.8-21.22 102.06-20.66 101.38-20.21 100.69-19.76 100.17-19.48 99.65-19.19 99.43-19.19L99.43-19.19Q99.11-19.19 99.11-19.51L99.11-19.51Q99.11-19.69 99.34-20.38 99.58-21.06 99.86-21.85 100.15-22.64 100.44-23.35 100.73-24.05 100.84-24.34L100.84-24.34Q100.91-24.44 101.07-24.82 101.23-25.2 101.38-25.2ZM73.44-24.84L73.55-24.95Q73.76-24.95 74.39-24.97 75.02-24.98 75.73-24.98 76.43-24.98 77-24.97 77.58-24.95 77.69-24.91L77.69-24.91 77.62-24.8Q77.47-24.73 76.91-24.71 76.36-24.7 75.69-24.7 75.02-24.7 74.41-24.71 73.8-24.73 73.55-24.73L73.55-24.73 73.44-24.84ZM78.73-16.09L78.73-20.16Q78.73-20.3 78.53-20.39 78.34-20.48 78.12-20.48 77.9-20.48 77.71-20.38 77.51-20.27 77.51-20.05L77.51-20.05 77.51-16.09Q77.51-15.84 77.71-15.77 77.9-15.7 78.12-15.73 78.34-15.77 78.53-15.88 78.73-15.98 78.73-16.09L78.73-16.09ZM83.52-16.09L83.52-20.16Q83.52-20.34 83.38-20.38 83.23-20.41 83.09-20.41L83.09-20.41Q82.76-20.41 82.42-20.39 82.08-20.38 82.08-19.91L82.08-19.91 82.08-16.31Q82.08-16.02 82.3-15.89 82.51-15.77 82.78-15.77 83.05-15.77 83.29-15.88 83.52-15.98 83.52-16.09L83.52-16.09ZM86.87 1.8L86.98 1.69 93.71 1.69Q94.07 1.69 94.07 1.33L94.07 1.33 94.07-7.45Q94.07-7.81 93.71-7.81L93.71-7.81 88.34-7.81Q88.16-7.81 88.16-7.92L88.16-7.92Q88.16-8.28 88.52-8.28L88.52-8.28 100.87-8.28Q101.09-8.28 101.36-8.59 101.63-8.89 101.88-9.31 102.13-9.72 102.31-10.13 102.49-10.55 102.49-10.73L102.49-10.73Q102.49-11.74 102.04-12.73 101.59-13.72 101.03-14.62 100.48-15.52 100.03-16.31 99.58-17.1 99.58-17.75L99.58-17.75Q99.58-17.96 99.76-17.96L99.76-17.96Q100.08-17.96 100.53-17.84 100.98-17.71 101.3-17.6L101.3-17.6Q102.02-17.39 102.83-16.99 103.64-16.6 104.31-16.06 104.98-15.52 105.43-14.81 105.88-14.11 105.88-13.25L105.88-13.25Q105.88-12.24 105.41-11.72 104.94-11.2 104.22-10.62L104.22-10.62 104.15-10.44Q104.15-9.97 104.49-9.74 104.83-9.5 105.23-9.32 105.62-9.14 105.97-8.91 106.31-8.68 106.31-8.17L106.31-8.17Q106.31-7.81 105.95-7.81L105.95-7.81 99.47-7.81Q99.11-7.81 99.11-7.45L99.11-7.45 99.11 1.19Q99.11 1.4 99.36 1.46 99.61 1.51 99.79 1.51L99.79 1.51Q100.69 1.51 101.2 1.03 101.7 0.54 102.02-0.04 102.35-0.61 102.58-1.1 102.82-1.58 103.18-1.58L103.18-1.58Q103.32-1.58 103.82-1.15 104.33-0.72 104.9-0.16 105.48 0.4 106 0.92 106.52 1.44 106.74 1.62L106.74 1.62 106.81 1.8 106.7 1.91 86.98 1.91 86.87 1.8ZM88.63-17.42L88.7-17.57Q89.89-17.57 90.86-17.05 91.84-16.52 92.52-15.75 93.2-14.98 93.56-14.06 93.92-13.14 93.87-12.37 93.82-11.59 93.35-11.07 92.88-10.55 91.91-10.55L91.91-10.55Q91.48-10.55 91.17-10.55 90.86-10.55 90.58-10.94L90.58-10.94Q90.4-11.2 90.32-11.86 90.25-12.53 90.22-12.85L90.22-12.85Q90.04-14.04 89.66-15.21 89.28-16.38 88.63-17.42L88.63-17.42ZM97.7-10.55L97.7-10.55Q97.09-10.55 96.55-11.18 96.01-11.81 95.6-12.67 95.18-13.54 94.9-14.42 94.61-15.3 94.46-15.77L94.46-15.77Q94.39-16.06 94.28-16.38 94.18-16.7 94.1-16.99L94.1-16.99Q94.03-17.24 94.09-17.37 94.14-17.5 94.46-17.5L94.46-17.5Q95.26-17.5 96.21-17.06 97.16-16.63 97.99-15.95 98.82-15.26 99.36-14.42 99.9-13.57 99.9-12.71L99.9-12.71Q99.9-11.81 99.25-11.18 98.6-10.55 97.7-10.55ZM78.73-10.33L78.73-14.87Q78.73-14.98 78.53-15.05 78.34-15.12 78.12-15.14 77.9-15.16 77.71-15.08 77.51-15.01 77.51-14.87L77.51-14.87 77.51-10.33Q77.51-10.19 77.71-10.1 77.9-10.01 78.12-10.01 78.34-10.01 78.53-10.08 78.73-10.15 78.73-10.33L78.73-10.33ZM83.52-10.33L83.52-14.65Q83.52-14.9 83.29-15.03 83.05-15.16 82.78-15.16 82.51-15.16 82.3-15.03 82.08-14.9 82.08-14.65L82.08-14.65 82.08-10.55Q82.08-10.15 82.42-10.1 82.76-10.04 83.05-10.04L83.05-10.04Q83.23-10.04 83.38-10.08 83.52-10.12 83.52-10.33L83.52-10.33ZM77.62-4.1L77.62-4.1Q77.62-4.1 76.99-4.05 76.36-4 75.6-3.94 74.84-3.89 74.18-3.87 73.51-3.85 73.44-3.85L73.44-3.85Q73.19-3.89 73.17-4.1 73.15-4.32 73.44-4.32L73.44-4.32 77.18-4.32Q77.26-4.32 77.42-4.27 77.58-4.21 77.62-4.1ZM123.62-2.56L123.73-2.77 123.73-29.45Q123.73-29.81 124.09-29.81L124.09-29.81Q125.46-29.81 126.79-29.65 128.12-29.48 129.46-29.3L129.46-29.3 129.64-29.16Q129.49-28.87 129.13-28.62 128.77-28.37 128.77-28.08L128.77-28.08 128.77-1.19Q128.77 0.04 128.11 0.83 127.44 1.62 126.45 2.12 125.46 2.63 124.33 2.9 123.19 3.17 122.26 3.35L122.26 3.35 122.08 3.31Q121.86 3.02 121.73 2.61 121.61 2.2 121.52 1.73 121.43 1.26 121.3 0.81 121.18 0.36 120.96 0L120.96 0Q120.82-0.22 120.53-0.49 120.24-0.76 119.92-1.03 119.59-1.3 119.29-1.53 118.98-1.76 118.76-1.94L118.76-1.94Q118.87-2.12 119.14-2.14 119.41-2.16 119.59-2.16L119.59-2.16 122.87-2.16 123.62-2.56ZM109.51-5.47L109.4-5.62Q110.02-7.02 110.7-8.39 111.38-9.76 112-11.12L112-11.12Q112.72-12.78 113.33-14.45 113.94-16.13 114.44-17.86L114.44-17.86 115.09-20.16Q115.16-20.41 115.22-20.66 115.27-20.92 115.34-21.17L115.34-21.17Q115.42-21.46 115.67-21.46L115.67-21.46Q115.78-21.46 116.59-21.13 117.4-20.81 118.35-20.39 119.3-19.98 120.13-19.62 120.96-19.26 121.07-19.15L121.07-19.15Q121.25-19.01 121.28-18.94 121.32-18.86 121.21-18.65L121.21-18.65Q120.85-17.89 120.31-17.19 119.77-16.49 119.3-15.8L119.3-15.8Q118.87-15.19 118.19-14.22 117.5-13.25 116.66-12.13 115.81-11.02 114.84-9.86 113.87-8.71 112.93-7.78 112-6.84 111.1-6.19 110.2-5.54 109.51-5.47L109.51-5.47ZM139.93-6.23L139.93-6.23Q138.67-6.23 137.97-7.07 137.27-7.92 136.85-9.11 136.44-10.3 136.21-11.56 135.97-12.82 135.61-13.68L135.61-13.68Q135.43-14.08 134.89-15.1 134.35-16.13 133.74-17.24 133.13-18.36 132.66-19.26 132.19-20.16 132.19-20.34L132.19-20.34Q132.19-20.52 132.32-20.57 132.44-20.63 132.59-20.63L132.59-20.63Q133.6-20.63 134.69-20.07 135.79-19.51 136.87-18.59 137.95-17.68 138.94-16.51 139.93-15.34 140.69-14.09 141.44-12.85 141.89-11.66 142.34-10.48 142.34-9.54L142.34-9.54Q142.34-8.96 142.22-8.39 142.09-7.81 141.82-7.33 141.55-6.84 141.08-6.53 140.62-6.23 139.93-6.23ZM149.29-15.98L149.18-16.09 148.97-16.02Q148.75-15.8 148.25-15.25 147.74-14.69 147.17-14.13 146.59-13.57 146.07-13.12 145.55-12.67 145.33-12.67L145.33-12.67Q145.15-12.67 145.17-12.82 145.19-12.96 145.22-13.03L145.22-13.03Q145.51-13.79 145.85-14.54 146.2-15.3 146.52-16.06L146.52-16.06Q147.13-17.42 147.67-18.79 148.21-20.16 148.72-21.56L148.72-21.56Q149.22-22.93 149.58-24.35 149.94-25.78 150.26-27.22L150.26-27.22Q150.44-27.9 150.55-28.62 150.66-29.34 150.91-29.95L150.91-29.95Q151.02-30.2 151.24-30.2L151.24-30.2Q151.49-30.2 152.32-29.93 153.14-29.66 154.06-29.3 154.98-28.94 155.75-28.58 156.53-28.22 156.71-28.04L156.71-28.04 156.67-27.9Q156.38-27.65 156.08-27.5 155.77-27.36 155.52-27.11L155.52-27.11Q155.41-27 155.12-26.5 154.84-25.99 154.49-25.31 154.15-24.62 153.77-23.85 153.4-23.08 153.09-22.39 152.78-21.71 152.59-21.19 152.39-20.66 152.39-20.52L152.39-20.52Q152.39-20.2 152.71-20.05 153.04-19.91 153.41-19.82 153.79-19.73 154.12-19.64 154.44-19.55 154.44-19.4L154.44-19.4Q154.44-19.22 154.08-18.95 153.72-18.68 153.72-18.47L153.72-18.47 153.72 1.91Q153.72 2.27 153.18 2.52 152.64 2.77 151.96 2.92 151.27 3.06 150.59 3.13 149.9 3.2 149.65 3.2L149.65 3.2Q149.29 3.2 149.29 2.84L149.29 2.84 149.29-15.98ZM177.44-20.63L169.81-20.63Q169.45-20.63 169.45-20.27L169.45-20.27 169.45 1.69Q169.45 2.2 168.89 2.48 168.34 2.77 167.58 2.93 166.82 3.1 166.09 3.15 165.35 3.2 164.99 3.2L164.99 3.2Q164.63 3.2 164.63 2.84L164.63 2.84 164.63-10.48Q164.63-10.66 164.54-10.76 164.45-10.87 164.45-11.05L164.45-11.05Q164.45-11.23 164.54-11.36 164.63-11.48 164.63-11.66L164.63-11.66 164.63-29.59Q164.63-29.95 165.02-29.95L165.02-29.95Q165.28-29.95 166.09-29.86 166.9-29.77 167.8-29.63 168.7-29.48 169.49-29.36 170.28-29.23 170.46-29.16L170.46-29.16Q170.46-29.02 170.3-28.91 170.14-28.8 169.96-28.69 169.78-28.58 169.61-28.44 169.45-28.3 169.45-28.08L169.45-28.08 169.45-21.67Q169.45-21.53 169.54-21.35 169.63-21.17 169.7-21.1L169.7-21.1Q170.82-20.92 171.41-21.28 172.01-21.64 172.37-22.19 172.73-22.75 173-23.36 173.27-23.98 173.77-24.3L173.77-24.3Q173.84-24.34 173.86-24.34 173.88-24.34 173.95-24.37L173.95-24.37Q174.13-24.34 174.65-23.89 175.18-23.44 175.79-22.86 176.4-22.28 176.96-21.74 177.52-21.2 177.73-21.02L177.73-21.02 177.77-20.88 177.7-20.74 177.44-20.63ZM163.3-26.57L163.33-26.39Q163.33-26.32 163.26-26.24L163.26-26.24Q162.65-25.49 162.32-24.84 162-24.19 161.77-23.53 161.53-22.86 161.33-22.16 161.14-21.46 160.81-20.63L160.81-20.63Q160.49-19.84 159.89-18.88 159.3-17.93 158.6-16.97 157.9-16.02 157.14-15.19 156.38-14.36 155.7-13.82L155.7-13.82 155.59-13.79Q155.45-13.9 155.47-14.44 155.48-14.98 155.56-15.62 155.63-16.27 155.74-16.87 155.84-17.46 155.88-17.68L155.88-17.68Q156.31-19.62 156.87-21.51 157.43-23.4 157.72-25.38L157.72-25.38Q157.82-26.06 157.84-26.75 157.86-27.43 157.97-28.12L157.97-28.12Q158-28.33 158.18-28.33L158.18-28.33Q158.4-28.33 159.16-28.12 159.91-27.9 160.76-27.59 161.6-27.29 162.34-27 163.08-26.71 163.3-26.57L163.3-26.57ZM161.42-20.77L161.68-20.88Q161.78-20.88 162.13-20.9 162.47-20.92 162.83-20.92 163.19-20.92 163.48-20.9 163.76-20.88 163.84-20.84L163.84-20.84Q163.84-20.74 163.71-20.68 163.58-20.63 163.51-20.63L163.51-20.63Q163.4-20.63 163.06-20.61 162.72-20.59 162.36-20.59 162-20.59 161.69-20.61 161.39-20.63 161.35-20.66L161.35-20.66 161.42-20.77ZM178.09-10.8L170.96-10.8Q170.82-10.8 170.62-10.87 170.42-10.94 170.35-11.09L170.35-11.09Q170.32-11.16 170.39-11.21 170.46-11.27 170.53-11.3L170.53-11.3Q171-11.56 171.52-11.61 172.04-11.66 172.51-11.88L172.51-11.88Q172.84-12.02 173.18-12.51 173.52-13 173.84-13.52 174.17-14.04 174.46-14.45 174.74-14.87 174.92-14.87L174.92-14.87Q175.14-14.87 175.77-14.36 176.4-13.86 177.08-13.23 177.77-12.6 178.29-11.99 178.81-11.38 178.81-11.16L178.81-11.16Q178.81-10.98 178.52-10.89 178.24-10.8 178.09-10.8L178.09-10.8ZM155.66-10.8L155.41-10.91Q155.34-10.98 155.34-11.05L155.34-11.05Q155.34-11.12 155.41-11.2L155.41-11.2Q155.45-11.2 155.54-11.23 155.63-11.27 155.66-11.27L155.66-11.27 162.97-11.27Q163.08-11.27 163.33-11.2 163.58-11.12 163.66-11.05L163.66-11.05Q163.66-10.98 163.35-10.89 163.04-10.8 162.97-10.8L162.97-10.8 155.66-10.8Z" transform="translate(-2.700000047683716, 30.489999771118164)"></path></g> <!----> <!----> <!----> <!----> <!----> <!----> <!----></g></g> <g data-gra="path-slogan" fill-rule="" class="tp-slogan iconsvg-slogansvg" fill="#333" transform="translate(-1.2350006103515625,39.95000076293945)"><rect width="0"></rect> <rect x="181.5800018310547" width="0"></rect> <g transform="translate(0,0)"><g transform="scale(1)"><path d="M2.01-4.94L6.40-4.94L6.40-8.37L7.54-8.37L7.54 0L6.40 0L6.40-3.89L2.01-3.89L2.01 0L0.87 0L0.87-8.37L2.01-8.37L2.01-4.94ZM10.56-1.01L15.59-1.01L15.59 0L9.42 0L9.42-8.37L15.50-8.37L15.50-7.41L10.56-7.41L10.56-4.80L15.13-4.80L15.13-3.79L10.56-3.79L10.56-1.01ZM22.45-3.79L18.33-3.79L18.33 0L17.19 0L17.19-8.37L23.00-8.37L23.00-7.41L18.33-7.41L18.33-4.80L22.45-4.80L22.45-3.79ZM25.42-1.01L30.45-1.01L30.45 0L24.28 0L24.28-8.37L30.36-8.37L30.36-7.41L25.42-7.41L25.42-4.80L29.99-4.80L29.99-3.79L25.42-3.79L25.42-1.01ZM32.10-8.37L33.24-8.37L33.24 0L32.10 0L32.10-8.37ZM38.40-8.37L39.55-8.37L39.55-1.01L43.80-1.01L43.80 0L38.40 0L38.40-8.37ZM45.08-8.37L46.22-8.37L46.22 0L45.08 0L45.08-8.37ZM54.41-3.52L51.85-3.52L51.85-4.48L55.50-4.48L55.50 0L54.77 0L54.50-1.05Q53.54 0.09 51.76 0.14L51.76 0.14Q50.06 0.14 49.15-0.73L49.15-0.73Q47.78-2.01 47.82-4.25L47.82-4.25Q48.14-8.41 51.80-8.60L51.80-8.60Q54.91-8.41 55.37-5.85L55.37-5.85L54.27-5.85Q53.81-7.59 51.76-7.64L51.76-7.64Q49.15-7.45 49.01-4.21L49.01-4.21Q49.01-0.73 51.80-0.73L51.80-0.73Q52.81-0.73 53.54-1.28L53.54-1.28Q54.45-2.01 54.41-3.52L54.41-3.52ZM58.38-4.94L62.77-4.94L62.77-8.37L63.92-8.37L63.92 0L62.77 0L62.77-3.89L58.38-3.89L58.38 0L57.24 0L57.24-8.37L58.38-8.37L58.38-4.94ZM67.80-7.41L64.97-7.41L64.97-8.37L71.73-8.37L71.73-7.41L68.90-7.41L68.90 0L67.80 0L67.80-7.41ZM81.52 0L80.70-2.42L77.31-2.42L76.44 0L75.30 0L78.46-8.37L79.74-8.37L82.75 0L81.52 0ZM79.00-7.13L77.68-3.43L80.28-3.43L79.05-7.13L79.00-7.13ZM85.13-8.37L89.34-1.60L89.34-8.37L90.43-8.37L90.43 0L89.15 0L84.90-6.77L84.86-6.77L84.86 0L83.76 0L83.76-8.37L85.13-8.37ZM95.60 0L92.22 0L92.22-8.37L95.65-8.37Q99.03-8.18 99.17-4.30L99.17-4.30Q98.98-0.09 95.60 0L95.60 0ZM95.46-7.45L93.36-7.45L93.36-0.96L95.55-0.96Q97.93-1.10 98.02-4.21L98.02-4.21Q97.98-7.36 95.46-7.45L95.46-7.45ZM109.96-5.94L109.96-5.94L108.91-5.94Q108.81-7.54 106.80-7.64L106.80-7.64Q104.93-7.59 104.93-6.17L104.93-6.17Q104.93-5.26 105.93-5.12L105.93-5.12L108.31-4.57Q110.19-4.11 110.19-2.29L110.19-2.29Q110.14 0.05 106.89 0.14L106.89 0.14Q105.11 0.14 104.38-0.59L104.38-0.59Q103.46-1.28 103.51-2.70L103.51-2.70L104.61-2.70Q104.65-0.78 106.89-0.73L106.89-0.73Q109.09-0.78 109.13-2.15L109.13-2.15Q109.32-3.29 107.31-3.66L107.31-3.66L105.57-4.02Q103.78-4.53 103.78-6.04L103.78-6.04Q103.92-8.50 106.71-8.60L106.71-8.60Q109.87-8.60 109.96-5.94ZM119.65-8.37L119.65 0L118.55 0L118.55-4.94Q118.55-5.62 118.55-7.04L118.55-7.04L116.17 0L115.03 0L112.70-7.04L112.65-7.04Q112.65-6.54 112.70-5.53L112.70-5.53Q112.70-5.03 112.70-4.94L112.70-4.94L112.70 0L111.56 0L111.56-8.37L113.20-8.37L115.63-1.28L118.00-8.37L119.65-8.37ZM126.83 0L126.00-2.42L122.62-2.42L121.75 0L120.61 0L123.76-8.37L125.04-8.37L128.06 0L126.83 0ZM124.31-7.13L122.99-3.43L125.59-3.43L124.36-7.13L124.31-7.13ZM129.07-8.37L130.21-8.37L130.21-1.01L134.46-1.01L134.46 0L129.07 0L129.07-8.37ZM135.56-8.37L136.70-8.37L136.70-1.01L140.96-1.01L140.96 0L135.56 0L135.56-8.37ZM145.48-8.37L146.62-8.37L146.62 0L145.48 0L145.48-8.37ZM150.69-7.41L147.86-7.41L147.86-8.37L154.63-8.37L154.63-7.41L151.79-7.41L151.79 0L150.69 0L150.69-7.41ZM156.91-1.01L161.94-1.01L161.94 0L155.77 0L155.77-8.37L161.85-8.37L161.85-7.41L156.91-7.41L156.91-4.80L161.48-4.80L161.48-3.79L156.91-3.79L156.91-1.01ZM171.45-8.37L171.45 0L170.35 0L170.35-4.94Q170.35-5.62 170.35-7.04L170.35-7.04L167.98 0L166.83 0L164.50-7.04L164.46-7.04Q164.46-6.54 164.50-5.53L164.50-5.53Q164.50-5.03 164.50-4.94L164.50-4.94L164.50 0L163.36 0L163.36-8.37L165.00-8.37L167.43-1.28L169.80-8.37L171.45-8.37ZM179.22-5.94L179.22-5.94L178.17-5.94Q178.08-7.54 176.07-7.64L176.07-7.64Q174.19-7.59 174.19-6.17L174.19-6.17Q174.19-5.26 175.20-5.12L175.20-5.12L177.58-4.57Q179.45-4.11 179.45-2.29L179.45-2.29Q179.41 0.05 176.16 0.14L176.16 0.14Q174.38 0.14 173.64-0.59L173.64-0.59Q172.73-1.28 172.78-2.70L172.78-2.70L173.87-2.70Q173.92-0.78 176.16-0.73L176.16-0.73Q178.35-0.78 178.40-2.15L178.40-2.15Q178.58-3.29 176.57-3.66L176.57-3.66L174.83-4.02Q173.05-4.53 173.05-6.04L173.05-6.04Q173.19-8.50 175.98-8.60L175.98-8.60Q179.13-8.60 179.22-5.94Z" transform="translate(-0.8686817373634748, 8.595377190754382)"></path></g></g></g></g></g><defs v-gra="od"></defs></svg>